# xmcd
#
# Track frame offsets: 
#        150
#        13684
#        30461
#        47087
#        61378
#        75276
#        91357
#        110041
#        125551
#        143571
#        160068
#        177303
#        195525
#
# Disc length: 2825 seconds
#
# Revision: 0
# Processed by: cddbd v1.5.2PL0 Copyright (c) Steve Scherf et al.
# Submitted via: ExactAudioCopy v0.99pb5
#
DISCID=a20b070d
DTITLE=Various Artist - 2011 ACM Spotlight Disc 2
DYEAR=2011
DGENRE=Country
TTITLE0=Ashton Shepherd - Look It Up
TTITLE1=Wlaker Hayes - Why Wait For Summer
TTITLE2=Craig Campbell - Family Man
TTITLE3=Thompson Square - Are You Gonna Kiss Me Or Not
TTITLE4=Josh Kelley - Georgia Clay
TTITLE5=Tyler Farr - Camouflage
TTITLE6=Sunny Sweeney - It Wrecks Me
TTITLE7=Troy Olsen - Good Hands
TTITLE8=The Harters - If I Run
TTITLE9=Jennette McCurdy - Generation Love
TTITLE10=Dave Barnes - God Gave Me You
TTITLE11=Randy Montana - 1,000 Faces
TTITLE12=Christian Kane - The House Rules
EXTD=
EXTT0=
EXTT1=
EXTT2=
EXTT3=
EXTT4=
EXTT5=
EXTT6=
EXTT7=
EXTT8=
EXTT9=
EXTT10=
EXTT11=
EXTT12=
PLAYORDER=
